<?xml version="1.0" encoding="utf-8"?>
<!-- Generator: Adobe Illustrator 21.0.0, SVG Export Plug-In . SVG Version: 6.00 Build 0)  -->
<svg version="1.1" id="Layer_1" xmlns="http://www.w3.org/2000/svg" xmlns:xlink="http://www.w3.org/1999/xlink" x="0px" y="0px"
	 viewBox="0 0 189.5 45.4" style="enable-background:new 0 0 189.5 45.4;" xml:space="preserve">
<style type="text/css">
	.st0{fill:#FFFFFF;}
</style>
<g>
	<path class="st0" d="M47.7,19.7L39,4.6c-1.1-1.9-3.1-3-5.2-3H16.4c-2.2,0-4.1,1.1-5.2,3L2.4,19.7c-1.1,1.9-1.1,4.1,0,6l8.7,15.1
		c1.1,1.9,3,3,5.2,3h17.4c2.1,0,4.1-1.1,5.2-3l8.7-15.1C48.8,23.8,48.8,21.6,47.7,19.7z M13.3,25.5c-0.1-0.1-0.2-0.2-0.2-0.4v-3.3
		c0-0.2,0.1-0.3,0.2-0.4c0.1-0.1,0.2-0.2,0.4-0.2h5.7l-2.5,4.3h-3.2C13.5,25.7,13.4,25.6,13.3,25.5z M17.2,31.7L15.4,33
		c-0.1,0.1-0.2,0.1-0.3,0.1C15,33,15,32.9,15,32.7l0.2-2.1c0-0.2,0.1-0.2,0.2-0.3c0.1-0.1,0.2-0.1,0.3,0l1.4,0.8
		c0.1,0.1,0.2,0.2,0.2,0.3C17.4,31.6,17.4,31.7,17.2,31.7z M18.1,30.6c-0.2,0.1-0.3,0-0.4-0.1l-1.4-0.8c-0.1-0.1-0.2-0.2-0.2-0.3
		c0-0.1,0-0.3,0.1-0.4l6.5-11.4c0.1-0.1,0.2-0.2,0.3-0.2c0.2,0,0.3,0,0.4,0.1l1.4,0.8c0.1,0.1,0.2,0.2,0.3,0.3c0,0.2,0,0.3-0.1,0.4
		l-6.6,11.3C18.3,30.5,18.2,30.6,18.1,30.6z M22.7,25.7l2.5-4.3h1.4l2,4.3H22.7z M30.8,27c-0.2-0.1-0.9-1.4-2-3.7
		c-0.7-1.6-1.4-3.2-2.1-4.8l-0.5-1.2c-0.7-1.5-1.2-2.6-1.4-3.3c-0.5-1.2-0.5-1.9-0.3-2.1c0.2-0.1,0.5,0.2,0.9,0.9
		c0.3,0.4,0.8,1.2,1.4,2.4c0.6,1,1,1.7,1.3,2.1c0.8,1.2,2.2,3.7,4.2,7.6l0.3,0.6c0.2,0.3,0.2,0.5-0.1,0.9c-0.2,0.2-0.4,0.4-0.6,0.5
		L31.8,27c-0.2,0.1-0.3,0.1-0.4,0.2C31.2,27.1,31,27.1,30.8,27z M32.6,29.9l-0.9-1.3c-0.1-0.2-0.1-0.3-0.1-0.4
		c0.1-0.2,0.2-0.2,0.3-0.3l0.8-0.4c0.2-0.1,0.3-0.1,0.5,0s0.3,0.2,0.4,0.3l0.7,1.3c0.1,0.2,0.1,0.3,0,0.5c0,0.2-0.2,0.3-0.3,0.4
		l-0.6,0.3c-0.2,0.1-0.3,0.1-0.5,0.1C32.8,30.2,32.7,30.1,32.6,29.9z M35.8,33.4c-0.1-0.1-0.2-0.2-0.3-0.3s-0.3-0.2-0.5-0.3
		c-0.3-0.1-0.5-0.2-0.7-0.3s-0.5-0.3-0.6-0.5c-0.2-0.3-0.3-0.7-0.2-0.9c0-0.2,0.2-0.3,0.4-0.5l0,0c0.6-0.3,1-0.4,1.4-0.1
		c0.3,0.2,0.5,0.5,0.6,1.1C36,32,36,32.4,36,32.9L35.8,33.4z M37,25.2c0,0.1,0,0.2-0.2,0.4c-0.1,0.1-0.2,0.2-0.4,0.2h-2.9
		c0-0.2-0.1-0.4-0.2-0.5l-1-1.9c-0.4-0.8-0.8-1.5-1-2h5.1c0.2,0,0.3,0.1,0.4,0.2c0.1,0.1,0.2,0.2,0.2,0.4C37,22,37,25.2,37,25.2z"/>
	<g>
		<path class="st0" d="M71,6.4h-7.2L54.6,33h6l2-6.1h9.6l2,6.1h6L71,6.4z M64,22.6l3.3-10.1h0.2l3.3,10.1H64z"/>
		<path class="st0" d="M83.3,40.5V13.1h5.5v3.4H89c0.2-0.5,0.6-1.1,1.1-1.6c0.5-0.6,1.1-1,1.8-1.4c0.8-0.4,1.7-0.6,2.8-0.6
			c1.5,0,2.8,0.4,4,1.1c1.2,0.8,2.2,1.9,3,3.4c0.7,1.5,1.1,3.4,1.1,5.7c0,2.2-0.4,4.1-1.1,5.6s-1.7,2.7-2.9,3.5
			c-1.2,0.8-2.6,1.2-4.1,1.2c-1.1,0-2-0.2-2.7-0.5c-0.7-0.4-1.4-0.8-1.8-1.3c-0.5-0.5-0.8-1.1-1.1-1.6h-0.2v10.7h-5.6V40.5z
			 M88.7,23c0,1.2,0.2,2.2,0.5,3.1s0.8,1.6,1.4,2.1s1.4,0.7,2.3,0.7s1.7-0.3,2.3-0.7c0.6-0.5,1.1-1.2,1.4-2.1s0.5-1.9,0.5-3.1
			s-0.2-2.2-0.5-3c-0.3-0.9-0.8-1.6-1.4-2.1s-1.4-0.7-2.3-0.7s-1.7,0.2-2.3,0.7s-1.1,1.2-1.4,2C88.9,20.8,88.7,21.9,88.7,23z"/>
		<path class="st0" d="M106.4,40.5V13.1h5.5v3.4h0.2c0.2-0.5,0.6-1.1,1.1-1.6c0.5-0.6,1.1-1,1.8-1.4c0.8-0.4,1.7-0.6,2.8-0.6
			c1.5,0,2.8,0.4,4,1.1c1.2,0.8,2.2,1.9,3,3.4c0.7,1.5,1.1,3.4,1.1,5.7c0,2.2-0.4,4.1-1.1,5.6s-1.7,2.7-2.9,3.5
			c-1.2,0.8-2.6,1.2-4.1,1.2c-1.1,0-2-0.2-2.7-0.5c-0.7-0.4-1.4-0.8-1.8-1.3c-0.5-0.5-0.8-1.1-1.1-1.6H112v10.7h-5.6V40.5z
			 M111.9,23c0,1.2,0.2,2.2,0.5,3.1s0.8,1.6,1.4,2.1s1.4,0.7,2.3,0.7s1.7-0.3,2.3-0.7c0.6-0.5,1.1-1.2,1.4-2.1s0.5-1.9,0.5-3.1
			s-0.2-2.2-0.5-3c-0.3-0.9-0.8-1.6-1.4-2.1s-1.4-0.7-2.3-0.7s-1.7,0.2-2.3,0.7s-1.1,1.2-1.4,2C112,20.8,111.9,21.9,111.9,23z"/>
		<path class="st0" d="M147.5,13.1l-7,20h-6.2l-7-20h5.8l4.1,14.3h0.2l4.1-14.3C141.5,13.1,147.5,13.1,147.5,13.1z"/>
		<path class="st0" d="M153.1,10.5c-0.8,0-1.5-0.3-2.1-0.8c-0.6-0.6-0.9-1.2-0.9-2s0.3-1.4,0.9-2c0.6-0.6,1.3-0.8,2.1-0.8
			s1.5,0.3,2.1,0.8s0.9,1.2,0.9,2s-0.3,1.4-0.9,2C154.7,10.2,154,10.5,153.1,10.5z M150.3,33V13h5.5v20H150.3z"/>
		<path class="st0" d="M165.8,6.4V33h-5.5V6.4H165.8z"/>
		<path class="st0" d="M175.9,33.4c-1.3,0-2.4-0.2-3.4-0.7c-1-0.4-1.8-1.1-2.4-2c-0.6-0.9-0.9-2-0.9-3.3c0-1.1,0.2-2,0.6-2.8
			c0.4-0.8,1-1.4,1.7-1.8c0.7-0.5,1.5-0.8,2.4-1s1.8-0.4,2.8-0.5c1.2-0.1,2.1-0.2,2.8-0.3c0.7-0.1,1.2-0.3,1.5-0.5s0.5-0.5,0.5-1
			v-0.1c0-0.8-0.3-1.5-0.8-1.9s-1.2-0.7-2.2-0.7s-1.8,0.2-2.4,0.7c-0.6,0.4-1,1-1.2,1.6l-5.1-0.4c0.3-1.2,0.8-2.3,1.5-3.1
			c0.8-0.9,1.7-1.6,3-2.1c1.2-0.5,2.6-0.7,4.2-0.7c1.1,0,2.2,0.1,3.2,0.4c1,0.3,1.9,0.7,2.7,1.2s1.4,1.2,1.9,2.1
			c0.5,0.9,0.7,1.9,0.7,3.1V33h-5.2v-2.8h-0.2c-0.3,0.6-0.7,1.2-1.3,1.6c-0.5,0.5-1.2,0.8-1.9,1.1S176.9,33.4,175.9,33.4z
			 M177.5,29.6c0.8,0,1.5-0.2,2.2-0.5c0.6-0.3,1.1-0.8,1.5-1.3c0.4-0.6,0.5-1.2,0.5-1.9v-2.1c-0.2,0.1-0.4,0.2-0.7,0.3
			s-0.6,0.2-1,0.2c-0.4,0.1-0.7,0.1-1.1,0.2c-0.4,0.1-0.7,0.1-1,0.1c-0.6,0.1-1.2,0.2-1.7,0.5c-0.5,0.2-0.9,0.5-1.1,0.8
			c-0.3,0.3-0.4,0.8-0.4,1.3c0,0.8,0.3,1.3,0.8,1.7C176,29.4,176.7,29.6,177.5,29.6z"/>
	</g>
</g>
</svg>
