<?xml version="1.0" encoding="utf-8"?>
<!-- Generator: Adobe Illustrator 21.0.0, SVG Export Plug-In . SVG Version: 6.00 Build 0)  -->
<svg version="1.1" id="Layer_1" xmlns="http://www.w3.org/2000/svg" xmlns:xlink="http://www.w3.org/1999/xlink" x="0px" y="0px"
	 viewBox="0 0 52.2 44.3" style="enable-background:new 0 0 52.2 44.3;" xml:space="preserve">
<style type="text/css">
	.st0{fill:#FF6B81;}
</style>
<path class="st0" d="M48.7,19.1L40,4c-1-1.8-3-3-5.2-3H17.4c-2.2,0-4.1,1.1-5.2,3L3.5,19.1c-1.1,1.9-1.1,4.1,0,6l8.7,15.1
	c1.1,1.9,3,3,5.2,3h17.4c2.1,0,4.1-1.1,5.2-3l8.7-15.1C49.8,23.3,49.8,21,48.7,19.1z M14.3,25c-0.1-0.1-0.2-0.2-0.2-0.4v-3.3
	c0-0.2,0.1-0.3,0.2-0.4c0.1-0.1,0.2-0.2,0.4-0.2h5.7L17.9,25h-3.2C14.5,25.1,14.4,25.1,14.3,25z M18.2,31.2l-1.8,1.2
	c-0.1,0.1-0.2,0.1-0.3,0.1c-0.1,0-0.1-0.2-0.1-0.3l0.2-2.1c0-0.2,0.1-0.2,0.2-0.3c0.1-0.1,0.2-0.1,0.3,0l1.4,0.8
	c0.1,0.1,0.2,0.2,0.2,0.3C18.4,31,18.4,31.1,18.2,31.2z M19.1,30.1c-0.2,0.1-0.3,0-0.4-0.1l-1.4-0.8C17.1,29.1,17,29,17,28.9
	s0-0.3,0.1-0.4l6.5-11.4c0.1-0.1,0.2-0.2,0.3-0.2c0.2,0,0.3,0,0.4,0.1l1.4,0.8c0.1,0.1,0.2,0.2,0.3,0.3c0,0.2,0,0.3-0.1,0.4
	l-6.6,11.3C19.3,29.9,19.2,30,19.1,30.1z M23.7,25.1l2.5-4.3h1.4l2,4.3C29.6,25.1,23.7,25.1,23.7,25.1z M31.8,26.4
	c-0.2-0.1-0.9-1.4-2-3.7c-0.7-1.6-1.4-3.2-2.1-4.8l-0.5-1.2c-0.7-1.5-1.2-2.6-1.4-3.3c-0.5-1.2-0.5-1.9-0.3-2.1
	c0.2-0.1,0.5,0.2,0.9,0.9c0.3,0.4,0.8,1.2,1.4,2.4c0.6,1,1,1.7,1.3,2.1c0.8,1.2,2.2,3.7,4.2,7.6l0.3,0.6c0.2,0.3,0.2,0.5-0.1,0.9
	c-0.2,0.2-0.4,0.4-0.6,0.5l-0.2,0.1c-0.2,0.1-0.3,0.1-0.4,0.2C32.2,26.6,32,26.5,31.8,26.4z M33.6,29.4L32.8,28
	c-0.1-0.2-0.1-0.3-0.1-0.4c0.1-0.2,0.2-0.2,0.3-0.3l0.8-0.4c0.2-0.1,0.3-0.1,0.5,0s0.3,0.2,0.4,0.3l0.7,1.3c0.1,0.2,0.1,0.3,0,0.5
	c0,0.2-0.2,0.3-0.3,0.4l-0.6,0.3c-0.2,0.1-0.3,0.1-0.5,0.1C33.8,29.6,33.7,29.5,33.6,29.4z M36.8,32.9c-0.1-0.1-0.2-0.2-0.3-0.3
	s-0.3-0.2-0.5-0.3c-0.3-0.1-0.5-0.2-0.7-0.3c-0.2-0.1-0.5-0.3-0.6-0.5c-0.2-0.3-0.3-0.7-0.2-0.9c0-0.2,0.2-0.3,0.4-0.5l0,0
	c0.6-0.3,1-0.4,1.4-0.1c0.3,0.2,0.5,0.5,0.6,1.1c0.1,0.4,0.1,0.8,0.1,1.3L36.8,32.9z M38,24.6c0,0.1,0,0.2-0.2,0.4
	c-0.1,0.1-0.2,0.2-0.4,0.2h-2.9c0-0.2-0.1-0.4-0.2-0.5l-1-1.9c-0.4-0.8-0.8-1.5-1-2h5.1c0.2,0,0.3,0.1,0.4,0.2
	c0.1,0.1,0.2,0.2,0.2,0.4C38,21.4,38,24.6,38,24.6z"/>
</svg>
